<mxfile host="app.diagrams.net" modified="2023-08-29T02:38:30.036Z" agent="Mozilla/5.0 (X11; Ubuntu; Linux x86_64; rv:109.0) Gecko/20100101 Firefox/116.0" etag="I3rYx2lSUjMczpgDIhhK" version="21.6.9" type="github">
  <diagram name="Page-1" id="fkf_0MzLQ-LXU-uPIASA">
    <mxGraphModel dx="954" dy="579" grid="1" gridSize="10" guides="1" tooltips="1" connect="1" arrows="1" fold="1" page="1" pageScale="1" pageWidth="850" pageHeight="1100" math="0" shadow="0">
      <root>
        <mxCell id="0" />
        <mxCell id="1" parent="0" />
        <mxCell id="e4HRmAb5uQ789pObGgQE-10" value="&lt;div style=&quot;font-size: 20px;&quot;&gt;game tebak angka&lt;/div&gt;" style="rounded=0;whiteSpace=wrap;html=1;horizontal=1;verticalAlign=top;fontStyle=1;spacing=8;spacingBottom=0;spacingLeft=0;fontSize=20;" vertex="1" parent="1">
          <mxGeometry x="280" y="40" width="290" height="510" as="geometry" />
        </mxCell>
        <mxCell id="e4HRmAb5uQ789pObGgQE-23" value="pengacak angka" style="ellipse;whiteSpace=wrap;html=1;fontSize=18;fontStyle=1" vertex="1" parent="1">
          <mxGeometry x="350" y="100" width="150" height="80" as="geometry" />
        </mxCell>
        <mxCell id="e4HRmAb5uQ789pObGgQE-24" value="pengecek angka" style="ellipse;whiteSpace=wrap;html=1;fontSize=18;fontStyle=1" vertex="1" parent="1">
          <mxGeometry x="350" y="219" width="150" height="80" as="geometry" />
        </mxCell>
        <mxCell id="e4HRmAb5uQ789pObGgQE-25" value="penebak angka" style="ellipse;whiteSpace=wrap;html=1;fontSize=18;fontStyle=1" vertex="1" parent="1">
          <mxGeometry x="350" y="344" width="150" height="80" as="geometry" />
        </mxCell>
        <mxCell id="e4HRmAb5uQ789pObGgQE-26" value="pemain" style="shape=umlActor;verticalLabelPosition=bottom;verticalAlign=top;html=1;outlineConnect=0;" vertex="1" parent="1">
          <mxGeometry x="690" y="280" width="90" height="180" as="geometry" />
        </mxCell>
        <mxCell id="e4HRmAb5uQ789pObGgQE-27" value="komputer" style="shape=umlActor;verticalLabelPosition=bottom;verticalAlign=top;html=1;outlineConnect=0;" vertex="1" parent="1">
          <mxGeometry x="100" y="280" width="90" height="180" as="geometry" />
        </mxCell>
        <mxCell id="e4HRmAb5uQ789pObGgQE-28" value="" style="endArrow=none;html=1;rounded=0;entryX=0;entryY=0.5;entryDx=0;entryDy=0;exitX=1;exitY=0.3333333333333333;exitDx=0;exitDy=0;exitPerimeter=0;" edge="1" parent="1" source="e4HRmAb5uQ789pObGgQE-27" target="e4HRmAb5uQ789pObGgQE-23">
          <mxGeometry width="50" height="50" relative="1" as="geometry">
            <mxPoint x="380" y="340" as="sourcePoint" />
            <mxPoint x="430" y="290" as="targetPoint" />
            <Array as="points">
              <mxPoint x="280" y="140" />
            </Array>
          </mxGeometry>
        </mxCell>
        <mxCell id="e4HRmAb5uQ789pObGgQE-29" value="" style="endArrow=none;html=1;rounded=0;entryX=0;entryY=0.5;entryDx=0;entryDy=0;" edge="1" parent="1" target="e4HRmAb5uQ789pObGgQE-24">
          <mxGeometry width="50" height="50" relative="1" as="geometry">
            <mxPoint x="190" y="340" as="sourcePoint" />
            <mxPoint x="280" y="343.99595744680846" as="targetPoint" />
            <Array as="points">
              <mxPoint x="280" y="330" />
              <mxPoint x="310" y="259" />
            </Array>
          </mxGeometry>
        </mxCell>
        <mxCell id="e4HRmAb5uQ789pObGgQE-30" value="" style="endArrow=none;html=1;rounded=0;entryX=0;entryY=0.3333333333333333;entryDx=0;entryDy=0;exitX=1;exitY=0.5;exitDx=0;exitDy=0;entryPerimeter=0;" edge="1" parent="1" source="e4HRmAb5uQ789pObGgQE-25" target="e4HRmAb5uQ789pObGgQE-26">
          <mxGeometry width="50" height="50" relative="1" as="geometry">
            <mxPoint x="520" y="401" as="sourcePoint" />
            <mxPoint x="680" y="320" as="targetPoint" />
            <Array as="points">
              <mxPoint x="520" y="340" />
              <mxPoint x="570" y="340" />
            </Array>
          </mxGeometry>
        </mxCell>
      </root>
    </mxGraphModel>
  </diagram>
</mxfile>
